<svg xmlns="http://www.w3.org/2000/svg" viewBox="0 0 999.33 560.37"><title>Android_logo_2019</title><path d="M744.06,168.84,827,25.24a16.84,16.84,0,0,0-6.09-23A16.62,16.62,0,0,0,798,8.38L714,153.83c-64.08-29.26-136.2-45.58-213.77-45.58S350.57,124.57,286.5,153.83l-84-145.45a16.79,16.79,0,0,0-29,16.86l82.9,143.6C113.41,246.3,16.59,391,.6,560.37H999.93C983.94,391,887.12,246.3,744.06,168.84ZM270.83,420a41.88,41.88,0,1,1,41.88-41.88A41.9,41.9,0,0,1,270.83,420Zm458.76,0a41.88,41.88,0,1,1,41.88-41.88A41.9,41.9,0,0,1,729.59,420Z" transform="translate(-0.6 0)" style="fill:#32de84"/></svg>